<svg aria-hidden="true" style="position: absolute; width: 0; height: 0; overflow: hidden;" version="1.1" xmlns="http://www.w3.org/2000/svg" xmlns:xlink="http://www.w3.org/1999/xlink">
<defs>
<symbol id="icon-instagram" viewBox="0 0 32 32">
<path d="M31.961 9.403c-0.074-1.699-0.35-2.868-0.744-3.88-0.424-1.111-1.053-2.057-1.848-2.835l-0.001-0.001c-0.779-0.791-1.723-1.418-2.777-1.825l-0.054-0.018c-1.019-0.394-2.179-0.67-3.878-0.744-1.715-0.080-2.261-0.1-6.598-0.1-4.344 0-4.887 0.020-6.592 0.094-1.699 0.074-2.866 0.35-3.878 0.744-1.111 0.424-2.059 1.053-2.837 1.848l-0.001 0.001c-0.791 0.779-1.418 1.723-1.825 2.777l-0.018 0.054c-0.394 1.019-0.668 2.179-0.744 3.878-0.080 1.713-0.1 2.259-0.1 6.598 0 4.344 0.020 4.887 0.094 6.592 0.074 1.699 0.35 2.868 0.744 3.88 0.406 1.075 1.037 2.037 1.849 2.838 0.8 0.81 1.769 1.441 2.83 1.841 1.019 0.394 2.179 0.67 3.88 0.744 1.705 0.076 2.249 0.094 6.592 0.094 4.342 0 4.885-0.020 6.59-0.094 1.699-0.074 2.868-0.35 3.88-0.744 2.155-0.849 3.829-2.523 4.66-4.622l0.019-0.055c0.394-1.019 0.67-2.183 0.744-3.882 0.076-1.705 0.094-2.249 0.094-6.59 0-4.344-0.006-4.887-0.080-6.592zM29.083 22.46c-0.070 1.563-0.332 2.407-0.552 2.968-0.551 1.4-1.637 2.487-3 3.026l-0.036 0.013c-0.562 0.218-1.411 0.48-2.966 0.548-1.687 0.076-2.193 0.094-6.46 0.094s-4.779-0.020-6.46-0.094c-1.563-0.068-2.407-0.33-2.968-0.55-0.721-0.269-1.334-0.676-1.836-1.192l-0.001-0.001c-0.516-0.504-0.923-1.117-1.182-1.803l-0.011-0.034c-0.22-0.562-0.48-1.411-0.55-2.966-0.074-1.687-0.094-2.195-0.094-6.46 0-4.268 0.020-4.779 0.094-6.46 0.070-1.563 0.332-2.405 0.55-2.968 0.256-0.694 0.664-1.323 1.199-1.837 0.52-0.53 1.143-0.938 1.839-1.193 0.56-0.22 1.411-0.48 2.966-0.55 1.687-0.074 2.193-0.094 6.46-0.094 4.274 0 4.777 0.020 6.46 0.094 1.561 0.070 2.405 0.332 2.966 0.55 0.694 0.256 1.325 0.664 1.839 1.193 0.53 0.52 0.936 1.143 1.191 1.839 0.22 0.56 0.482 1.411 0.55 2.966 0.076 1.687 0.094 2.193 0.094 6.46s-0.018 4.767-0.092 6.454z"></path>
<path d="M16.062 7.778c-4.46 0.101-8.036 3.741-8.036 8.215s3.576 8.114 8.027 8.215l0.009 0c4.46-0.102 8.036-3.741 8.036-8.216s-3.576-8.114-8.027-8.215l-0.009-0zM16.062 21.324c-2.944 0-5.331-2.387-5.331-5.331s2.387-5.331 5.331-5.331v0c2.944 0 5.331 2.387 5.331 5.331s-2.387 5.331-5.331 5.331v0zM26.52 7.454c0 1.060-0.859 1.919-1.919 1.919s-1.919-0.859-1.919-1.919v0c0-1.060 0.859-1.919 1.919-1.919s1.919 0.859 1.919 1.919v0z"></path>
</symbol>
<symbol id="icon-twitter" viewBox="0 0 32 32">
<path d="M31.993 6.075c-1.099 0.493-2.374 0.857-3.71 1.028l-0.068 0.007c1.359-0.816 2.38-2.077 2.871-3.578l0.013-0.046c-1.197 0.722-2.59 1.273-4.074 1.573l-0.084 0.014c-1.199-1.278-2.899-2.075-4.785-2.075-3.621 0-6.556 2.935-6.556 6.556v0c0 0.52 0.044 1.019 0.152 1.495-5.465-0.276-10.272-2.876-13.488-6.824l-0.027-0.034c-0.562 0.948-0.895 2.090-0.895 3.309 0 2.263 1.145 4.259 2.887 5.439l0.023 0.015c-1.091-0.030-2.108-0.325-2.995-0.822l0.033 0.017v0.072c0.004 3.162 2.236 5.802 5.21 6.435l0.043 0.008c-0.5 0.137-1.075 0.216-1.668 0.216-0.018 0-0.036-0-0.054-0l0.003 0c-0.031 0.001-0.067 0.001-0.103 0.001-0.403 0-0.796-0.041-1.176-0.119l0.037 0.006c0.873 2.622 3.272 4.493 6.118 4.567l0.009 0c-2.213 1.744-5.041 2.796-8.115 2.796-0.005 0-0.010 0-0.015 0h0.001c-0.538 0-1.053-0.024-1.569-0.090 2.825 1.845 6.283 2.942 9.998 2.942 0.021 0 0.042-0 0.063-0h-0.003c12.065 0 18.662-9.995 18.662-18.658 0-0.29-0.010-0.57-0.024-0.848 1.298-0.936 2.389-2.065 3.256-3.357l0.030-0.047z"></path>
</symbol>
<symbol id="icon-facebook" viewBox="0 0 32 32">
<path d="M21.329 5.311h2.918v-5.085c-1.237-0.144-2.67-0.226-4.123-0.226-0.046 0-0.092 0-0.138 0l0.007-0c-4.21 0-7.090 2.649-7.090 7.516v4.478h-4.647v5.685h4.645v14.304h5.695v-14.302h4.458l0.708-5.687h-5.167v-3.918c0.002-1.643 0.444-2.766 2.735-2.766z"></path>
</symbol>
<symbol id="icon-linkedin" viewBox="0 0 32 32">
<path d="M31.985 31.982h0.008v-11.734c0-5.737-1.235-10.158-7.944-10.158-3.224 0-5.389 1.771-6.273 3.448h-0.094v-2.91h-6.358v21.354h6.624v-10.574c0-2.784 0.528-5.477 3.974-5.477 3.398 0 3.448 3.178 3.448 5.657v10.394h6.616zM0.539 10.63h6.63v21.352h-6.63v-21.352zM3.851 0c-2.119 0-3.84 1.719-3.84 3.838s1.719 3.878 3.84 3.878 3.842-1.759 3.842-3.878c-0.002-2.117-1.725-3.838-3.844-3.838z"></path>
</symbol>
<symbol id="icon-close-black" viewBox="0 0 32 32">
<path d="M32 3.223l-3.223-3.223-12.777 12.777-12.777-12.777-3.223 3.223 12.777 12.777-12.777 12.777 3.223 3.223 12.777-12.777 12.777 12.777 3.223-3.223-12.777-12.777 12.777-12.777z"></path>
</symbol>

</defs>
</svg>


