<svg aria-hidden="true" style="position: absolute; width: 0; height: 0; overflow: hidden;" version="1.1" xmlns="http://www.w3.org/2000/svg" xmlns:xlink="http://www.w3.org/1999/xlink">
<defs>
<symbol id="icon-phone-black" viewBox="0 0 24 32">
<path d="M19.642 18.493l-2.452-0.28c-0.067-0.008-0.145-0.013-0.223-0.013-0.531 0-1.012 0.215-1.36 0.564l-1.775 1.775c-2.753-1.42-4.941-3.608-6.324-6.28l-0.038-0.081 1.787-1.786c0.348-0.348 0.563-0.828 0.563-1.358 0-0.079-0.005-0.157-0.014-0.233l0.001 0.009-0.28-2.433c-0.115-0.966-0.93-1.709-1.918-1.709-0.001 0-0.002 0-0.002 0h-1.67c-1.091 0-1.998 0.907-1.93 1.998 0.511 8.243 7.104 14.827 15.338 15.339 1.091 0.067 1.998-0.84 1.998-1.931v-1.67c0-0.003 0-0.007 0-0.011 0-0.981-0.739-1.79-1.69-1.9l-0.009-0.001z"></path>
</symbol>
</defs>
</svg>
