<svg aria-hidden="true" style="position: absolute; width: 0; height: 0; overflow: hidden;" version="1.1" xmlns="http://www.w3.org/2000/svg" xmlns:xlink="http://www.w3.org/1999/xlink">
<defs>
<symbol id="icon-email-black" viewBox="0 0 24 32">
<path d="M20.007 8.003h-16.006c-1.1 0-1.99 0.9-1.99 2.001l-0.011 12.004c0 1.1 0.9 2.001 2.001 2.001h16.006c1.1 0 2.001-0.9 2.001-2.001v-12.004c0-1.1-0.9-2.001-2.001-2.001zM19.607 12.255l-7.072 4.42c-0.151 0.094-0.334 0.15-0.531 0.15s-0.38-0.056-0.535-0.153l0.004 0.002-7.072-4.42c-0.252-0.151-0.418-0.422-0.418-0.732 0-0.469 0.38-0.85 0.85-0.85 0.174 0 0.337 0.053 0.472 0.143l6.699 4.189 6.702-4.192c0.132-0.088 0.294-0.141 0.468-0.141 0.469 0 0.85 0.38 0.85 0.85 0 0.31-0.166 0.581-0.414 0.73l-0.004 0.002z"></path>
</symbol>

</defs>
</svg>
